<svg width="450" height="270" viewBox="0 0 450 270" fill="none" xmlns="http://www.w3.org/2000/svg">
<g clip-path="url(#clip0_4353_96963)">
<mask id="mask0_4353_96963" style="mask-type:alpha" maskUnits="userSpaceOnUse" x="0" y="0" width="450" height="498">
<rect width="450" height="498" fill="white"/>
</mask>
<g mask="url(#mask0_4353_96963)">
<g opacity="0.5" filter="url(#filter0_f_4353_96963)">
<path fill-rule="evenodd" clip-rule="evenodd" d="M154.272 14.5553C173.65 13.4005 195.646 12.505 208.057 28.6534C220.642 45.028 216.925 68.7286 211.688 89.2599C206.811 108.382 197.015 125.479 180.933 134.996C163.709 145.188 143.007 149.356 125.186 140.447C107.066 131.389 95.4637 111.74 91.8975 90.4849C88.5215 70.3639 94.88 49.9327 107.435 34.6497C119.175 20.358 136.63 15.6067 154.272 14.5553Z" fill="#2DCBA5"/>
</g>
<g opacity="0.5" filter="url(#filter1_f_4353_96963)">
<path fill-rule="evenodd" clip-rule="evenodd" d="M252.119 21.0003C271.927 20.9125 284.505 41.9902 296.194 59.3548C307.029 75.4511 316.387 93.0807 313.941 112.84C311.199 134.98 301.648 157.725 282.881 166.878C264.501 175.841 244.041 166.08 226.385 155.541C210.204 145.882 195.421 132.129 191.751 112.48C188.17 93.3078 197.999 75.6451 208.492 59.7433C220.004 42.2981 232.354 21.0878 252.119 21.0003Z" fill="#49B2FF"/>
</g>
</g>
</g>
<defs>
<filter id="filter0_f_4353_96963" x="-37" y="-114" width="381.556" height="387.325" filterUnits="userSpaceOnUse" color-interpolation-filters="sRGB">
<feFlood flood-opacity="0" result="BackgroundImageFix"/>
<feBlend mode="normal" in="SourceGraphic" in2="BackgroundImageFix" result="shape"/>
<feGaussianBlur stdDeviation="64" result="effect1_foregroundBlur_4353_96963"/>
</filter>
<filter id="filter1_f_4353_96963" x="63" y="-107" width="379.333" height="405.398" filterUnits="userSpaceOnUse" color-interpolation-filters="sRGB">
<feFlood flood-opacity="0" result="BackgroundImageFix"/>
<feBlend mode="normal" in="SourceGraphic" in2="BackgroundImageFix" result="shape"/>
<feGaussianBlur stdDeviation="64" result="effect1_foregroundBlur_4353_96963"/>
</filter>
<clipPath id="clip0_4353_96963">
<rect width="450" height="270" fill="white"/>
</clipPath>
</defs>
</svg>
