<?xml version="1.0" encoding="UTF-8" standalone="no"?>
<!DOCTYPE svg PUBLIC "-//W3C//DTD SVG 1.1//EN"
 "http://www.w3.org/Graphics/SVG/1.1/DTD/svg11.dtd">
<!-- Generated by graphviz version 2.47.0 (20210316.0004)
 -->
<!-- Title: dependencies Pages: 1 -->
<svg width="715pt" height="355pt"
 viewBox="0.00 0.00 715.00 355.00" xmlns="http://www.w3.org/2000/svg" xmlns:xlink="http://www.w3.org/1999/xlink">
<g id="graph0" class="graph" transform="scale(1 1) rotate(0) translate(4 351)">
<title>dependencies</title>
<polygon fill="white" stroke="transparent" points="-4,4 -4,-351 711,-351 711,4 -4,4"/>
<text text-anchor="start" x="332.51" y="-42.4" font-family="Times-12" font-weight="bold" font-size="14.00">Legend</text>
<polygon fill="#ffffb3" stroke="transparent" points="119.5,-10 119.5,-30 139.5,-30 139.5,-10 119.5,-10"/>
<text text-anchor="start" x="143.13" y="-15.4" font-family="Times-12" font-size="14.00"> &#160;Declarations</text>
<polygon fill="#8dd3c7" stroke="transparent" points="232.5,-10 232.5,-30 252.5,-30 252.5,-10 232.5,-10"/>
<text text-anchor="start" x="256.23" y="-15.4" font-family="Times-12" font-size="14.00"> &#160;Module</text>
<polygon fill="#80b1d3" stroke="transparent" points="318.5,-10 318.5,-30 338.5,-30 338.5,-10 318.5,-10"/>
<text text-anchor="start" x="342.28" y="-15.4" font-family="Times-12" font-size="14.00"> &#160;Bootstrap</text>
<polygon fill="#fdb462" stroke="transparent" points="415.5,-10 415.5,-30 435.5,-30 435.5,-10 415.5,-10"/>
<text text-anchor="start" x="439.17" y="-15.4" font-family="Times-12" font-size="14.00"> &#160;Providers</text>
<polygon fill="#fb8072" stroke="transparent" points="511.5,-10 511.5,-30 531.5,-30 531.5,-10 511.5,-10"/>
<text text-anchor="start" x="535.23" y="-15.4" font-family="Times-12" font-size="14.00"> &#160;Exports</text>
<g id="clust1" class="cluster">
<title>cluster_AppModule</title>
<polygon fill="none" stroke="black" stroke-dasharray="1,5" points="23,-146 23,-339 295,-339 295,-146 23,-146"/>
</g>
<g id="clust3" class="cluster">
<title>cluster_AppModule_imports</title>
<polygon fill="none" stroke="black" points="179,-154 179,-274 287,-274 287,-154 179,-154"/>
</g>
<g id="clust6" class="cluster">
<title>cluster_AppModule_providers</title>
<polygon fill="none" stroke="black" points="31,-222 31,-274 161,-274 161,-222 31,-222"/>
</g>
<g id="clust7" class="cluster">
<title>cluster_AuthModule</title>
<polygon fill="none" stroke="black" stroke-dasharray="1,5" points="303,-146 303,-214 699,-214 699,-146 303,-146"/>
</g>
<g id="clust10" class="cluster">
<title>cluster_AuthModule_exports</title>
<polygon fill="none" stroke="black" points="585,-154 585,-206 691,-206 691,-154 585,-154"/>
</g>
<g id="clust12" class="cluster">
<title>cluster_AuthModule_providers</title>
<polygon fill="none" stroke="black" points="311,-154 311,-206 577,-206 577,-154 311,-154"/>
</g>
<g id="clust13" class="cluster">
<title>cluster_UsersModule</title>
<polygon fill="none" stroke="black" stroke-dasharray="1,5" points="8,-70 8,-138 434,-138 434,-70 8,-70"/>
</g>
<g id="clust16" class="cluster">
<title>cluster_UsersModule_exports</title>
<polygon fill="none" stroke="black" points="316,-78 316,-130 426,-130 426,-78 316,-78"/>
</g>
<g id="clust18" class="cluster">
<title>cluster_UsersModule_providers</title>
<polygon fill="none" stroke="black" points="16,-78 16,-130 308,-130 308,-78 16,-78"/>
</g>
<!-- AuthModule -->
<g id="node1" class="node">
<title>AuthModule</title>
<polygon fill="#8dd3c7" stroke="black" points="278.55,-266 275.55,-270 254.55,-270 251.55,-266 191.45,-266 191.45,-230 278.55,-230 278.55,-266"/>
<text text-anchor="middle" x="235" y="-243.8" font-family="Times,serif" font-size="14.00">AuthModule</text>
</g>
<!-- AppModule -->
<g id="node3" class="node">
<title>AppModule</title>
<polygon fill="#8dd3c7" stroke="black" points="213.66,-331 210.66,-335 189.66,-335 186.66,-331 130.34,-331 130.34,-295 213.66,-295 213.66,-331"/>
<text text-anchor="middle" x="172" y="-308.8" font-family="Times,serif" font-size="14.00">AppModule</text>
</g>
<!-- AuthModule&#45;&gt;AppModule -->
<g id="edge1" class="edge">
<title>AuthModule&#45;&gt;AppModule</title>
<path fill="none" stroke="black" d="M202.53,-266.11C202.53,-266.11 202.53,-284.99 202.53,-284.99"/>
<polygon fill="black" stroke="black" points="199.03,-284.99 202.53,-294.99 206.03,-284.99 199.03,-284.99"/>
</g>
<!-- AuthService  -->
<g id="node5" class="node">
<title>AuthService </title>
<polygon fill="#fb8072" stroke="black" points="682.98,-198 593.02,-198 593.02,-162 682.98,-162 682.98,-198"/>
<text text-anchor="middle" x="638" y="-175.8" font-family="Times,serif" font-size="14.00">AuthService </text>
</g>
<!-- AuthModule&#45;&gt;AuthService  -->
<g id="edge5" class="edge">
<title>AuthModule&#45;&gt;AuthService </title>
<path fill="none" stroke="black" stroke-dasharray="5,2" d="M278.9,-257C383.34,-257 638,-257 638,-257 638,-257 638,-208.25 638,-208.25"/>
<polygon fill="black" stroke="black" points="641.5,-208.25 638,-198.25 634.5,-208.25 641.5,-208.25"/>
</g>
<!-- UsersModule -->
<g id="node2" class="node">
<title>UsersModule</title>
<polygon fill="#8dd3c7" stroke="black" points="278.92,-198 275.92,-202 254.92,-202 251.92,-198 187.08,-198 187.08,-162 278.92,-162 278.92,-198"/>
<text text-anchor="middle" x="233" y="-175.8" font-family="Times,serif" font-size="14.00">UsersModule</text>
</g>
<!-- UsersModule&#45;&gt;AuthModule -->
<g id="edge4" class="edge">
<title>UsersModule&#45;&gt;AuthModule</title>
<path fill="none" stroke="black" d="M234.97,-198.22C234.97,-198.22 234.97,-219.73 234.97,-219.73"/>
<polygon fill="black" stroke="black" points="231.47,-219.73 234.97,-229.73 238.47,-219.73 231.47,-219.73"/>
</g>
<!-- UsersModule&#45;&gt;AppModule -->
<g id="edge2" class="edge">
<title>UsersModule&#45;&gt;AppModule</title>
<path fill="none" stroke="black" d="M187.06,-186C180.94,-186 176.74,-186 176.74,-186 176.74,-186 176.74,-284.8 176.74,-284.8"/>
<polygon fill="black" stroke="black" points="173.24,-284.8 176.74,-294.8 180.24,-284.8 173.24,-284.8"/>
</g>
<!-- UsersService  -->
<g id="node8" class="node">
<title>UsersService </title>
<polygon fill="#fb8072" stroke="black" points="417.85,-122 324.15,-122 324.15,-86 417.85,-86 417.85,-122"/>
<text text-anchor="middle" x="371" y="-99.8" font-family="Times,serif" font-size="14.00">UsersService </text>
</g>
<!-- UsersModule&#45;&gt;UsersService  -->
<g id="edge8" class="edge">
<title>UsersModule&#45;&gt;UsersService </title>
<path fill="none" stroke="black" stroke-dasharray="5,2" d="M278.88,-180C295.19,-180 309.59,-180 309.59,-180 309.59,-180 309.59,-104 309.59,-104 309.59,-104 314.15,-104 314.15,-104"/>
<polygon fill="black" stroke="black" points="314.15,-107.5 324.15,-104 314.15,-100.5 314.15,-107.5"/>
</g>
<!-- AppService -->
<g id="node4" class="node">
<title>AppService</title>
<ellipse fill="#fdb462" stroke="black" cx="96" cy="-248" rx="56.74" ry="18"/>
<text text-anchor="middle" x="96" y="-243.8" font-family="Times,serif" font-size="14.00">AppService</text>
</g>
<!-- AppService&#45;&gt;AppModule -->
<g id="edge3" class="edge">
<title>AppService&#45;&gt;AppModule</title>
<path fill="none" stroke="black" d="M141.4,-259.03C141.4,-259.03 141.4,-284.78 141.4,-284.78"/>
<polygon fill="black" stroke="black" points="137.9,-284.78 141.4,-294.78 144.9,-284.78 137.9,-284.78"/>
</g>
<!-- AuthService -->
<g id="node6" class="node">
<title>AuthService</title>
<ellipse fill="#fdb462" stroke="black" cx="510" cy="-180" rx="59.11" ry="18"/>
<text text-anchor="middle" x="510" y="-175.8" font-family="Times,serif" font-size="14.00">AuthService</text>
</g>
<!-- AuthService&#45;&gt;AuthModule -->
<g id="edge6" class="edge">
<title>AuthService&#45;&gt;AuthModule</title>
<path fill="none" stroke="black" d="M510,-198.22C510,-218.37 510,-248 510,-248 510,-248 288.57,-248 288.57,-248"/>
<polygon fill="black" stroke="black" points="288.57,-244.5 278.57,-248 288.57,-251.5 288.57,-244.5"/>
</g>
<!-- JwtStrategy -->
<g id="node7" class="node">
<title>JwtStrategy</title>
<ellipse fill="#fdb462" stroke="black" cx="376" cy="-180" rx="56.76" ry="18"/>
<text text-anchor="middle" x="376" y="-175.8" font-family="Times,serif" font-size="14.00">JwtStrategy</text>
</g>
<!-- JwtStrategy&#45;&gt;AuthModule -->
<g id="edge7" class="edge">
<title>JwtStrategy&#45;&gt;AuthModule</title>
<path fill="none" stroke="black" d="M376,-198.02C376,-215.37 376,-239 376,-239 376,-239 288.84,-239 288.84,-239"/>
<polygon fill="black" stroke="black" points="288.84,-235.5 278.84,-239 288.84,-242.5 288.84,-235.5"/>
</g>
<!-- PrismaService -->
<g id="node9" class="node">
<title>PrismaService</title>
<ellipse fill="#fdb462" stroke="black" cx="233" cy="-104" rx="66.63" ry="18"/>
<text text-anchor="middle" x="233" y="-99.8" font-family="Times,serif" font-size="14.00">PrismaService</text>
</g>
<!-- PrismaService&#45;&gt;UsersModule -->
<g id="edge9" class="edge">
<title>PrismaService&#45;&gt;UsersModule</title>
<path fill="none" stroke="black" d="M233,-122.01C233,-122.01 233,-151.85 233,-151.85"/>
<polygon fill="black" stroke="black" points="229.5,-151.85 233,-161.85 236.5,-151.85 229.5,-151.85"/>
</g>
<!-- UsersService -->
<g id="node10" class="node">
<title>UsersService</title>
<ellipse fill="#fdb462" stroke="black" cx="86" cy="-104" rx="61.95" ry="18"/>
<text text-anchor="middle" x="86" y="-99.8" font-family="Times,serif" font-size="14.00">UsersService</text>
</g>
<!-- UsersService&#45;&gt;UsersModule -->
<g id="edge10" class="edge">
<title>UsersService&#45;&gt;UsersModule</title>
<path fill="none" stroke="black" d="M93.68,-122.03C93.68,-142.77 93.68,-174 93.68,-174 93.68,-174 176.99,-174 176.99,-174"/>
<polygon fill="black" stroke="black" points="176.99,-177.5 186.99,-174 176.99,-170.5 176.99,-177.5"/>
</g>
</g>
</svg>
